<?xml version="1.0" encoding="UTF-8" standalone="no"?>
<!-- Created with Inkscape (http://www.inkscape.org/) -->

<svg
   xmlns:dc="http://purl.org/dc/elements/1.1/"
   xmlns:cc="http://creativecommons.org/ns#"
   xmlns:rdf="http://www.w3.org/1999/02/22-rdf-syntax-ns#"
   xmlns:svg="http://www.w3.org/2000/svg"
   xmlns="http://www.w3.org/2000/svg"
   version="1.1"
   width="250"
   height="250"
   id="svg2">
  <defs
     id="defs4" />
  <metadata
     id="metadata7">
    <rdf:RDF>
      <cc:Work
         rdf:about="">
        <dc:format>image/svg+xml</dc:format>
        <dc:type
           rdf:resource="http://purl.org/dc/dcmitype/StillImage" />
        <dc:title></dc:title>
      </cc:Work>
    </rdf:RDF>
  </metadata>
  <g
     transform="translate(0,-802.36215)"
     id="layer9"
     style="display:inline" />
  <g
     id="layer3" />
  <g
     id="layer6">
    <g
       transform="translate(-2.5261644,5.1266773)"
       id="layer2">
      <g
         transform="matrix(0.65271994,0,0,0.65271994,-64.47701,-480.49155)"
         id="layer11"
         style="display:inline">
        <g
           transform="matrix(2.0451223,0,0,2.2096323,-264.13952,-975.59715)"
           id="Nube2">
          <title
             id="title4286">Nube</title>
          <path
             d="m 257.75031,863.20094 c -5.78798,-2.81923 -4.78966,-15.30691 1.53625,-19.21654 2.26687,-1.401 2.45221,-1.78875 2.48816,-5.2055 0.0879,-8.35185 4.34986,-13.49452 12.08657,-14.58414 3.01454,-0.42456 4.09341,-0.91645 4.70628,-2.14573 2.35383,-4.72132 6.01402,-6.47928 10.73703,-5.15692 l 3.26523,0.91421 2.79412,-2.87875 c 5.32162,-5.4828 9.65569,-5.73138 15.1779,-0.87054 l 3.25382,2.86413 4.66263,-0.4777 c 5.53708,-0.56729 7.489,0.36915 9.66656,4.63752 1.36822,2.68193 1.53026,2.76754 5.82699,3.07833 3.95961,0.28642 4.66084,0.58289 6.73697,2.84834 1.44772,1.57974 2.50426,3.63504 2.81544,5.47696 0.40747,2.41172 1.03936,3.31114 3.47201,4.94193 2.90009,1.94414 2.97917,2.10399 3.18671,6.4404 0.19845,4.14655 0.40506,4.62722 3.0601,7.11921 3.71719,3.48892 4.31931,6.65359 1.93542,10.17243 l -1.69365,2.5 -47.11449,0.13298 c -30.63404,0.0865 -47.63413,-0.12013 -48.60005,-0.59062 z"
             id="path4083"
             style="fill:#e6f1f2;fill-opacity:1;stroke:#e6f1f2;stroke-width:3.5710001;stroke-linecap:round;stroke-linejoin:round;stroke-miterlimit:4;stroke-opacity:1;stroke-dasharray:none;display:inline" />
          <path
             d="m 258.47612,865.92371 95.27072,0 c 0,0 5.30185,-2.74482 4.98047,-9.23605 -0.32138,-6.49122 -6.57123,-9.55274 -6.57123,-9.55274 0,0 1.2734,-3.45521 0.2234,-7.26981 -1.05,-3.81461 -6.47493,-5.6103 -6.47493,-5.6103 0,0 0.18657,-6.2953 -4.5083,-9.99068 -4.69487,-3.69538 -10.73455,-2.25209 -10.73455,-2.25209 0,0 -0.76907,-6.00288 -6.05899,-7.57496 -5.28991,-1.57208 -10.03314,0.67344 -10.03314,0.67344 0,0 -4.11927,-6.72793 -11.30199,-6.77583 -7.18273,-0.0479 -11.37561,7.27857 -11.37561,7.27857 0,0 -4.32219,-2.79145 -9.43872,-0.56512 -5.11654,2.22632 -6.27636,7.12009 -6.27636,7.12009 0,0 -5.93532,-1.5358 -11.85793,3.74478 -5.92261,5.28058 -4.59863,15.3043 -4.59863,15.3043 0,0 -7.53497,2.57416 -8.21631,12.79443 -0.68136,10.22027 6.9721,11.91197 6.9721,11.91197 z"
             id="path3023-2"
             style="fill:none;stroke:#000000;stroke-width:3.51914954;stroke-linecap:round;stroke-linejoin:round;stroke-miterlimit:4;stroke-opacity:1;stroke-dasharray:none;display:inline" />
        </g>
        <g
           transform="matrix(1.7456901,0,0,1.7456901,-94.103261,-572.75933)"
           id="Nube1">
          <title
             id="title4284">Nube</title>
        </g>
      </g>
    </g>
  </g>
  <g
     id="layer4"
     style="display:inline">
    <g
       transform="matrix(0.93425846,0,0,0.93425846,-259.62416,-96.068672)"
       id="g296">
      <g
         id="g298">
        <path
           d="m 398.80418,132.55281 c -1.83821,0.0326 -3.52749,1.1394 -4.25559,2.95146 0,0 -1.27118,3.15243 -2.12779,5.28516 -0.85881,2.13274 -5.97157,1.44141 -5.97157,1.44141 -6.40691,-0.80898 -12.77502,-0.71585 -19.01288,0.20591 0.004,0 -5.06881,0.7424 -5.97156,-1.37277 -0.90272,-2.11297 -2.26506,-5.21653 -2.26506,-5.21653 -1.02354,-2.39631 -3.78117,-3.49232 -6.17748,-2.47098 l -15.23774,6.45202 c -2.39412,1.02134 -3.55877,3.852 -2.53964,6.24612 0,0 1.36673,3.10136 2.26507,5.21652 0.90273,2.11296 -3.15736,5.28517 -3.15736,5.28517 -4.95221,3.84018 -9.41214,8.37737 -13.24724,13.5218 -0.088,0.11801 -0.18728,0.22455 -0.27456,0.34319 -0.62562,0.79286 -3.07993,3.69935 -4.94197,2.95145 -2.13274,-0.8588 -5.35382,-2.12778 -5.35382,-2.12778 -2.41608,-0.97084 -5.138,0.19219 -6.10882,2.60826 l -6.17748,15.37504 c -0.97082,2.41827 0.19219,5.20664 2.60826,6.17748 0,0 3.15463,1.27117 5.28517,2.12778 1.6012,0.64411 1.66456,3.66891 1.57869,5.1479 -0.0191,0.13866 -0.0504,0.27317 -0.0686,0.41182 -0.0139,0.14157 -0.0686,0.41184 -0.0686,0.41184 -0.79789,6.36367 -0.70372,12.74727 0.20592,18.94423 0,0 0.0988,0.33122 0.13727,0.82367 0.11537,1.47734 0.14331,4.53947 -1.44141,5.21653 -2.11517,0.90053 -5.28517,2.19643 -5.28517,2.19643 -2.39631,1.02134 -3.49233,3.8498 -2.47099,6.24611 l 6.52067,15.23776 c 1.02134,2.39631 3.78336,3.49233 6.17747,2.47099 0,0 3.10136,-1.2937 5.21653,-2.19644 2.11516,-0.90273 5.28516,3.15738 5.28516,3.15738 3.84034,4.9522 8.3771,9.41213 13.5218,13.24724 0.11803,0.088 0.22455,0.18727 0.3432,0.27455 0.11219,0.0881 0.15519,0.11392 0.34319,0.27455 1.128,0.9636 3.25072,3.06788 2.60827,4.66744 -0.85882,2.13273 -2.12779,5.28517 -2.12779,5.28517 -0.97084,2.41607 0.26081,5.20443 2.67688,6.17746 l 15.37505,6.17747 c 2.41827,0.97083 5.138,-0.19219 6.10882,-2.60827 0,0 1.2712,-3.15243 2.12781,-5.28517 0.85881,-2.13273 5.97155,-1.51003 5.97155,-1.51003 6.4068,0.8088 12.77499,0.71588 19.01288,-0.20593 0,-0.003 5.07102,-0.74019 5.97156,1.37277 0.90272,2.11517 2.26507,5.21653 2.26507,5.21653 1.01914,2.39631 3.78335,3.56317 6.17747,2.53963 l 15.23775,-6.52067 c 2.39631,-1.02134 3.56098,-3.78115 2.53964,-6.17746 0,0 -1.36454,-3.17001 -2.26508,-5.28517 -0.62359,-1.45961 1.0511,-3.39117 2.19643,-4.46151 0.11683,-0.0874 0.2269,-0.18641 0.34319,-0.27455 0.071,-0.0632 0.0758,-0.0156 0.13728,-0.0686 0.1671,-0.12715 0.31445,-0.28308 0.48047,-0.41184 4.97722,-3.8595 9.46786,-8.41373 13.31589,-13.59042 0.15543,-0.2091 0.32716,-0.40662 0.48046,-0.61775 0.96297,-1.12431 3.06787,-3.31936 4.66743,-2.67691 2.13272,0.85881 5.3538,2.1278 5.3538,2.1278 2.41828,0.97303 5.13581,-0.19219 6.10883,-2.60827 l 6.17747,-15.37503 c 0.97082,-2.41827 -0.18999,-5.20445 -2.60826,-6.17748 0,0 -3.15243,-1.26899 -5.28517,-2.12779 -1.59956,-0.6441 -1.66404,-3.66891 -1.57868,-5.14789 0.0141,-0.2465 0.0548,-0.27028 0.0686,-0.41183 0.018,-0.1367 0.0514,-0.27512 0.0686,-0.41183 0.79764,-6.36366 0.70385,-12.74732 -0.20591,-18.94423 -5.5e-4,5.4e-4 -0.0988,-0.33157 -0.13727,-0.82367 -0.11551,-1.47631 -0.14498,-4.47249 1.4414,-5.14789 2.11298,-0.90493 5.28517,-2.26507 5.28517,-2.26507 2.39412,-1.02355 3.49234,-3.78117 2.47099,-6.17747 l -6.52065,-15.3064 c -1.02136,-2.39852 -3.78336,-3.49233 -6.17747,-2.47099 0,0 -3.10138,1.36232 -5.21653,2.26506 -2.11517,0.90055 -5.28518,-3.22601 -5.28518,-3.22601 l -0.0686,0 c -3.84689,-4.9467 -8.37159,-9.41915 -13.52179,-13.24723 4.8e-4,0 -0.18733,-0.13746 -0.27456,-0.20593 -0.11617,-0.0855 -0.22641,-0.18974 -0.34319,-0.27455 -1.12419,-0.96297 -3.25236,-3.1365 -2.60827,-4.73606 0.85661,-2.13274 2.1278,-5.28517 2.1278,-5.28517 0.97302,-2.41827 -0.19219,-5.13801 -2.60826,-6.10884 l -15.44367,-6.17743 c -0.60401,-0.24325 -1.2405,-0.35407 -1.85323,-0.34319 z m -21.75843,42.69318 c 4.81047,-0.0851 9.66981,0.7682 14.41409,2.6769 18.9772,7.63481 28.22199,29.20709 20.59158,48.18428 -7.6348,18.97938 -29.20488,28.15772 -48.18427,20.52292 -18.97938,-7.63481 -28.22637,-29.20488 -20.59156,-48.18427 5.7261,-14.2329 19.33877,-22.9447 33.77016,-23.19983 z"
           id="path300"
           style="fill:#000000;fill-opacity:1" />
      </g>
    </g>
  </g>
  <g
     id="layer5">
    <g
       transform="matrix(1.104649,0,0,1.104649,-3.6872433,-7.157433)"
       id="layer1">
      <g
         transform="matrix(0.78543944,0,0,0.78543944,-83.071441,-558.91283)"
         id="layer10"
         style="display:inline">
        <g
           transform="matrix(1.7366672,0,0,1.7366672,-119.39995,-548.54762)"
           id="Brain">
          <title
             id="title4288">Cervello</title>
          <path
             d="m 148.08395,874.00996 c -4.31092,-2.14598 -6.57377,-6.86732 -6.25038,-13.04112 0.24856,-4.74526 1.61807,-8.68882 4.10118,-11.80955 1.25849,-1.58165 3.71372,-3.55738 5.30887,-4.27207 1.95958,-0.87796 1.98471,-0.95188 2.16798,-6.37573 0.19297,-5.71087 0.7804,-8.46147 2.52784,-11.83641 3.046,-5.88296 9.88066,-9.5933 16.88049,-9.16395 2.88945,0.17724 3.21863,-0.0141 4.2061,-2.44423 1.41162,-3.47402 3.63014,-5.87615 6.88343,-7.45312 1.61723,-0.78392 2.18582,-0.92378 4.17947,-1.02806 2.61001,-0.13652 4.25446,0.1439 6.28177,1.07121 1.58281,0.72399 2.83502,0.81489 3.62297,0.26299 0.29555,-0.20701 1.04654,-1.08774 1.66885,-1.95717 1.37681,-1.92354 3.85286,-4.32606 5.76186,-5.59075 4.17121,-2.76339 9.31533,-2.93372 13.95883,-0.46221 1.63169,0.86847 4.6303,3.57508 7.3917,6.67189 1.0725,1.20277 1.8529,1.26802 4.54825,0.38033 4.0406,-1.33073 9.47251,-1.20137 12.40223,0.29537 2.24189,1.14534 4.49275,4.37121 5.13296,7.3564 0.19187,0.89466 0.53895,1.60839 1.01233,2.08177 l 0.72035,0.72035 3.35145,-0.16553 c 4.02471,-0.1988 6.07463,0.1557 8.97931,1.55279 4.3325,2.08385 7.02987,6.40983 7.61484,12.21249 0.11198,1.11081 0.3855,2.29726 0.60783,2.63657 0.22955,0.35033 1.46687,1.1373 2.86331,1.82112 3.11697,1.52635 5.34726,3.61826 5.90406,5.53772 0.46509,1.60334 0.46681,5.49438 0.004,7.97507 -0.47871,2.56328 -0.22282,3.19072 1.80316,4.42144 0.82953,0.50392 2.27766,1.6933 3.21806,2.64308 5.0799,5.13052 5.25294,12.20462 0.41685,17.04071 l -1.6225,1.62249 -67.13538,-0.009 -67.1354,-0.009 -1.3762,-0.68508 z m 40.08462,-7.26538 c 0.54967,-0.38501 0.71451,-1.18653 0.40817,-1.98482 -0.0842,-0.21942 -0.83139,-0.76048 -1.66043,-1.20236 -1.93517,-1.03143 -2.889,-2.1921 -3.2566,-3.96283 -0.41195,-1.98438 -0.33556,-7.62081 0.13331,-9.83537 0.21512,-1.01608 0.39113,-2.95253 0.39113,-4.30323 0,-6.48726 -2.91847,-10.80118 -8.50813,-12.57623 -3.05648,-0.97061 -4.62385,-0.66085 -4.62385,0.9138 0,1.0385 0.51332,1.49668 1.98659,1.77317 3.31711,0.62254 5.74204,2.41168 7.02182,5.18076 0.60088,1.30014 0.71369,1.90956 0.79473,4.29315 0.18984,5.58449 -1.45178,8.93401 -5.24594,10.70366 -1.23722,0.57706 -1.72431,0.65363 -4.1784,0.65688 -1.52785,0.002 -3.60317,-0.15686 -4.61181,-0.35307 -2.30345,-0.44809 -3.0906,-0.158 -3.0906,1.13899 0,1.42096 0.84277,1.86717 4.54569,2.4067 4.02264,0.58611 8.52043,-0.22163 10.76431,-1.93312 0.45031,-0.34346 0.86682,-0.62448 0.9256,-0.62448 0.0588,0 0.17849,0.77086 0.26606,1.71302 0.23209,2.49725 0.80996,3.93046 2.1964,5.44744 1.23619,1.35259 3.73326,2.92204 4.66866,2.93433 0.28161,0.004 0.76459,-0.17017 1.07329,-0.38639 l 0,0 z m 26.9515,-3.54146 c 1.08597,-0.82346 0.42014,-7.69421 -1.01448,-10.46845 -0.20447,-0.3954 -0.93132,-1.45819 -1.61522,-2.36175 -1.08143,-1.42877 -1.19355,-1.68425 -0.86047,-1.96069 0.21065,-0.17482 1.16734,-1.50546 2.12599,-2.95696 1.26342,-1.91299 1.74299,-2.86662 1.74299,-3.46601 0,-1.0181 -0.56289,-1.6206 -1.51406,-1.6206 -0.81729,0 -1.12927,0.3452 -3.07745,3.40508 -2.45559,3.85683 -5.05679,5.77134 -9.75016,7.17621 -1.44739,0.43325 -1.90382,0.68888 -2.13469,1.19559 -0.37647,0.82627 0.16475,1.8946 1.07533,2.12261 0.9238,0.23132 3.84558,-0.6425 6.43592,-1.9248 l 2.27285,-1.12512 0.84449,0.9518 c 1.78975,2.01716 2.81731,5.1333 2.81731,8.54362 0,1.54165 0.0905,1.96891 0.50508,2.38344 0.59689,0.59689 1.44404,0.63874 2.14657,0.10603 z m 15.22705,-0.0688 c 0.18001,-0.11419 0.59481,-1.28795 0.92176,-2.60834 0.72275,-2.91878 1.34945,-4.19474 2.8462,-5.79489 1.78217,-1.90528 4.62046,-2.99816 7.78645,-2.99816 1.18333,0 1.37653,0.0672 1.37653,0.47913 0,0.9871 1.86285,4.10522 3.1434,5.26155 4.41774,3.98922 12.40506,4.46949 16.94899,1.01913 1.59717,-1.21278 2.02358,-2.36626 1.20794,-3.26753 -0.5837,-0.64499 -1.68114,-0.57542 -2.55767,0.16213 -0.40784,0.34318 -1.35411,0.9398 -2.10281,1.32583 -1.25231,0.64568 -1.58368,0.70088 -4.13921,0.68951 -3.32036,-0.0148 -5.1187,-0.59433 -6.879,-2.21692 -1.00536,-0.92671 -2.53829,-3.11698 -2.30619,-3.29511 0.0516,-0.0396 0.77567,-0.21604 1.60905,-0.3921 5.20594,-1.09977 8.66971,-4.86918 10.08596,-10.97593 0.76703,-3.30735 0.39475,-4.95213 -1.12086,-4.95213 -1.00284,0 -1.51707,0.75417 -1.77996,2.61049 -0.71279,5.0332 -2.9926,8.36253 -6.66804,9.73769 -1.15893,0.43361 -2.12656,0.53747 -5.7534,0.61756 -3.58852,0.0792 -4.65735,0.19227 -6.0395,0.63868 -3.32474,1.07382 -6.04,3.48808 -7.56332,6.7249 -1.42578,3.02954 -1.95446,6.64929 -1.04825,7.17711 0.53547,0.31188 1.58407,0.34151 2.03193,0.0574 l 0,0 z m -28.86411,-30.06223 c 1.25006,-0.25929 2.98607,-0.76243 3.85779,-1.11808 1.82508,-0.74461 4.64882,-2.56087 5.70766,-3.67123 l 0.72662,-0.76197 1.29369,0.95071 c 5.05802,3.71703 9.15955,4.97585 14.19589,4.35692 3.15788,-0.38808 3.96499,-0.92373 3.69169,-2.45002 -0.18541,-1.0354 -0.88266,-1.19132 -3.7567,-0.84007 -4.24688,0.51904 -6.97218,-0.20403 -11.02737,-2.92578 -2.58683,-1.73622 -2.73653,-1.91512 -2.43621,-2.91138 0.38759,-1.28574 0.59907,-5.63821 0.38497,-7.92298 -0.20811,-2.22083 -0.66473,-2.93616 -1.87424,-2.93616 -1.25286,0 -1.35053,0.36655 -1.39607,5.23939 -0.0548,5.86713 -0.32677,6.61992 -3.148,8.71446 -3.21299,2.3854 -7.38413,3.65005 -11.1599,3.38359 -1.71746,-0.12121 -2.27591,-0.073 -2.71478,0.23441 -0.65619,0.45961 -0.75983,1.89224 -0.17217,2.37996 1.00877,0.8372 4.5291,0.96234 7.82713,0.27823 l 0,0 z"
             id="path3842"
             style="fill:#d8b4b6;fill-opacity:1;stroke:#d8b4b6;stroke-width:5;stroke-linecap:round;stroke-linejoin:round;stroke-miterlimit:4;stroke-opacity:1;stroke-dasharray:none;display:inline" />
          <g
             transform="translate(-9.1712182,-19.697806)"
             id="g3906"
             style="display:inline">
            <path
               d="m 159.09903,896.79869 135.36044,0 c 0,0 7.53285,-3.89984 7.07623,-13.12256 -0.45661,-9.22272 -9.33639,-13.57251 -9.33639,-13.57251 0,0 1.80925,-4.90916 0.31741,-10.32894 -1.49184,-5.41978 -9.19956,-7.9711 -9.19956,-7.9711 0,0 0.26507,-8.94435 -6.40539,-14.19474 -6.67046,-5.25038 -15.25162,-3.19976 -15.25162,-3.19976 0,0 -1.09269,-8.52888 -8.6086,-10.76248 -7.5159,-2.23361 -14.25507,0.95682 -14.25507,0.95682 0,0 -5.85264,-9.55903 -16.05784,-9.62709 -10.2052,-0.0681 -16.16244,10.34138 -16.16244,10.34138 0,0 -6.14096,-3.96609 -13.41052,-0.80293 -7.26957,3.16316 -8.91744,10.11621 -8.91744,10.11621 0,0 -8.43288,-2.18206 -16.84771,5.32058 -8.41483,7.50263 -6.53373,21.74432 -6.53373,21.74432 0,0 -10.70566,3.65736 -11.67372,18.1783 -0.96807,14.52094 9.90595,16.9245 9.90595,16.9245 z"
               id="path3023"
               style="fill:none;stroke:#000000;stroke-width:5;stroke-linecap:round;stroke-linejoin:round;stroke-miterlimit:4;stroke-opacity:1;stroke-dasharray:none" />
            <path
               d="m 175.26147,876.84818 c 0,0 15.23884,5.10143 17.20239,-8.90829 1.96355,-14.00972 -9.87879,-14.57776 -9.87879,-14.57776"
               id="path3025"
               style="fill:none;stroke:#000000;stroke-width:3;stroke-linecap:round;stroke-linejoin:round;stroke-miterlimit:4;stroke-opacity:1;stroke-dasharray:none" />
            <path
               d="m 197.24761,885.04932 c 0,0 -3.27801,-0.99586 -4.68061,-3.89283 -1.4026,-2.89696 -0.69928,-10.27469 -0.69928,-10.27469"
               id="path3027"
               style="fill:none;stroke:#000000;stroke-width:3;stroke-linecap:round;stroke-linejoin:round;stroke-miterlimit:4;stroke-opacity:1;stroke-dasharray:none" />
            <path
               d="m 210.49688,872.33182 c 0,0 5.11273,-0.89908 8.33073,-3.82246 3.21801,-2.92337 5.17372,-7.06601 5.17372,-7.06601"
               id="path3029"
               style="fill:none;stroke:#000000;stroke-width:3;stroke-linecap:round;stroke-linejoin:round;stroke-miterlimit:4;stroke-opacity:1;stroke-dasharray:none" />
            <path
               d="m 204.79311,851.19258 c 0,0 8.6015,2.00028 15.93478,-5.23822 2.87643,-2.83926 1.66892,-12.00965 1.66892,-12.00965"
               id="path3031"
               style="fill:none;stroke:#000000;stroke-width:3;stroke-linecap:round;stroke-linejoin:round;stroke-miterlimit:4;stroke-opacity:1;stroke-dasharray:none" />
            <path
               d="m 239.40615,881.39386 c 0,0 0.60274,-12.87462 14.07144,-11.69611 13.4687,1.17852 13.70776,-13.05262 13.70776,-13.05262"
               id="path3033"
               style="fill:none;stroke:#000000;stroke-width:3;stroke-linecap:round;stroke-linejoin:round;stroke-miterlimit:4;stroke-opacity:1;stroke-dasharray:none" />
            <path
               d="m 254.62157,869.77711 c 0,0 0.15575,6.51276 7.56353,8.51202 7.40779,1.99926 11.25057,-2.45111 11.25057,-2.45111"
               id="path3035"
               style="fill:none;stroke:#000000;stroke-width:3;stroke-linecap:round;stroke-linejoin:round;stroke-miterlimit:4;stroke-opacity:1;stroke-dasharray:none" />
            <path
               d="m 239.46428,850.35325 c 0,0 -5.61323,1.70451 -10.62811,-0.75085 -5.01488,-2.45535 -7.31831,-5.142 -7.31831,-5.142"
               id="path3037"
               style="fill:none;stroke:#000000;stroke-width:3;stroke-linecap:round;stroke-linejoin:round;stroke-miterlimit:4;stroke-opacity:1;stroke-dasharray:none" />
            <path
               d="m 224.10714,881.55861 c 0,0 0.42721,-2.86405 -0.75346,-6.76868 -1.18067,-3.90463 -4.24653,-6.04382 -4.24653,-6.04382"
               id="path3039"
               style="fill:none;stroke:#000000;stroke-width:3;stroke-linecap:round;stroke-linejoin:round;stroke-miterlimit:4;stroke-opacity:1;stroke-dasharray:none" />
          </g>
        </g>
        <g
           id="text3008"
           style="font-size:56px;font-style:normal;font-variant:normal;font-weight:normal;font-stretch:normal;line-height:125%;letter-spacing:0px;word-spacing:0px;fill:#000000;fill-opacity:1;stroke:none;font-family:Saucer BB;-inkscape-font-specification:Saucer BB" />
      </g>
    </g>
  </g>
</svg>
